<svg width="128" height="128" viewBox="0 0 128 128" fill="none" xmlns="http://www.w3.org/2000/svg" role="img" aria-labelledby="title desc">
  <title id="title">SummaRead logo</title>
  <desc id="desc">Green circular SummaRead logo with a white SR monogram.</desc>
  <circle cx="64" cy="64" r="60" fill="#22c55e"/>
  <path d="M35 47.5C35 39.8 41.4 34 51.6 34C58.4 34 64.2 36.2 68.1 40.2L60.8 48.8C58.2 46.4 55.1 45.1 51.3 45.1C47.4 45.1 45.3 46.4 45.3 48.6C45.3 51.2 48.4 52.1 53.2 53.5C61.2 55.8 70.3 59 70.3 70C70.3 78.5 63.2 84.4 52.1 84.4C43.9 84.4 37.1 81.7 32.7 77L40.2 68.2C43.3 71.4 47.6 73.3 52.5 73.3C56.7 73.3 59.4 71.9 59.4 69.3C59.4 66.4 56.1 65.3 50.9 63.8C43.2 61.6 35 58.5 35 47.5Z" fill="white"/>
  <path d="M76 35.5H94.5C105.1 35.5 112 41.7 112 51.1C112 57.5 108.7 62.5 103.2 65.1L113.5 83H100.6L91.8 67.1H87.5V83H76V35.5ZM93.3 56.8C97.6 56.8 100.3 54.7 100.3 51.2C100.3 47.7 97.6 45.6 93.3 45.6H87.5V56.8H93.3Z" fill="white"/>
  <path d="M72.5 25L75.2 32.3L82.5 35L75.2 37.7L72.5 45L69.8 37.7L62.5 35L69.8 32.3L72.5 25Z" fill="white" fill-opacity="0.92"/>
</svg>
